<svg xmlns="http://www.w3.org/2000/svg" viewBox="0 0 700 520"><rect width="700" height="520" fill="#eef8de"/><rect y="379" width="700" height="140" fill="#fff8e6"/><defs><linearGradient id="volc3" x1="0" y1="0" x2="0" y2="1"><stop offset="0%" stop-color="#8a7a6a"/><stop offset="100%" stop-color="#5a4a3a"/></linearGradient></defs><path d="M125.6,349.6 L181.4,244.2 L218.6,244.2 L274.4,349.6 Z" fill="url(#volc3)" stroke="#2b2f45" stroke-width="2.4"/><circle cx="200" cy="245.4" r="13.6" fill="#e8823a"/><circle cx="200" cy="245.4" r="7.4" fill="#ffde6b"/><circle cx="175.2" cy="189.2" r="9.9" fill="#8a8a8a" opacity="0.55"/><circle cx="193.8" cy="207.2" r="9.9" fill="#8a8a8a" opacity="0.55"/><circle cx="212.4" cy="201.2" r="9.9" fill="#8a8a8a" opacity="0.55"/><circle cx="227.9" cy="186.2" r="9.9" fill="#8a8a8a" opacity="0.55"/><path d="M187.6,306.2 L196.3,256.6 L205.0,306.2 Z" fill="#e8823a" opacity="0.85"/><ellipse cx="480" cy="331.6" rx="46.5" ry="9.8" fill="#000" opacity="0.15"/><defs><radialGradient id="rock4" cx="35%" cy="30%"><stop offset="0%" stop-color="#c7c0b4"/><stop offset="100%" stop-color="#8a8378"/></radialGradient></defs><polygon points="480.0,241.0 506.9,260.6 524.1,292.4 504.5,316.9 516.8,336.6 480.0,326.8 450.6,334.1 435.9,299.8 455.5,272.9 472.6,248.3" fill="url(#rock4)" stroke="#2b2f45" stroke-width="2.4"/><line x1="470.2" y1="270.4" x2="480.0" y2="277.4" stroke="#6b6458" stroke-width="1.4" opacity="0.7"/><line x1="494.7" y1="290.0" x2="504.5" y2="297.0" stroke="#6b6458" stroke-width="1.4" opacity="0.7"/><line x1="460.4" y1="304.7" x2="470.2" y2="311.7" stroke="#6b6458" stroke-width="1.4" opacity="0.7"/><line x1="487.4" y1="314.5" x2="497.2" y2="321.5" stroke="#6b6458" stroke-width="1.4" opacity="0.7"/><path d="M411.0,260.0 q18,-6 30,0" fill="none" stroke="#2b6f9a" stroke-width="3" stroke-linecap="round" opacity="0.85"/><path d="M405.0,290.0 q18,-6 30,0" fill="none" stroke="#2b6f9a" stroke-width="3" stroke-linecap="round" opacity="0.70"/><path d="M399.0,320.0 q18,-6 30,0" fill="none" stroke="#2b6f9a" stroke-width="3" stroke-linecap="round" opacity="0.55"/><text x="200" y="400" text-anchor="middle" font-family="Inter,Arial,sans-serif" font-size="15" font-weight="700" fill="#7a8a3a">Fast change</text><text x="480" y="400" text-anchor="middle" font-family="Inter,Arial,sans-serif" font-size="15" font-weight="700" fill="#2b6f9a">Slow change</text></svg>