<svg xmlns="http://www.w3.org/2000/svg" viewBox="0 0 700 520"><rect x="0" y="0" width="350" height="520" fill="#cfe8c0"/><rect x="350" y="0" width="350" height="520" fill="#a8d8ef"/><rect x="0" y="410" width="700" height="110" fill="#3a5a2a"/><g transform="translate(0,52)"><g transform="translate(150,200) scale(1.4)"><path d="M22.0,0.0 L33.0,0.0 L33.8,4.9" fill="none" stroke="#5f6a33" stroke-width="3" stroke-linecap="round"/><path d="M20.3,8.4 L30.5,12.6 L29.4,17.5" fill="none" stroke="#5f6a33" stroke-width="3" stroke-linecap="round"/><path d="M15.6,15.6 L23.3,23.3 L20.5,27.4" fill="none" stroke="#5f6a33" stroke-width="3" stroke-linecap="round"/><path d="M8.4,20.3 L12.6,30.5 L8.4,33.2" fill="none" stroke="#5f6a33" stroke-width="3" stroke-linecap="round"/><path d="M0.0,22.0 L0.0,33.0 L-4.9,33.8" fill="none" stroke="#5f6a33" stroke-width="3" stroke-linecap="round"/><path d="M-8.4,20.3 L-12.6,30.5 L-17.5,29.4" fill="none" stroke="#5f6a33" stroke-width="3" stroke-linecap="round"/><path d="M-15.6,15.6 L-23.3,23.3 L-27.4,20.5" fill="none" stroke="#5f6a33" stroke-width="3" stroke-linecap="round"/><path d="M-20.3,8.4 L-30.5,12.6 L-33.2,8.4" fill="none" stroke="#5f6a33" stroke-width="3" stroke-linecap="round"/><path d="M-22.0,0.0 L-33.0,0.0 L-33.8,-4.9" fill="none" stroke="#5f6a33" stroke-width="3" stroke-linecap="round"/><path d="M-20.3,-8.4 L-30.5,-12.6 L-29.4,-17.5" fill="none" stroke="#5f6a33" stroke-width="3" stroke-linecap="round"/><path d="M-15.6,-15.6 L-23.3,-23.3 L-20.5,-27.4" fill="none" stroke="#5f6a33" stroke-width="3" stroke-linecap="round"/><path d="M-8.4,-20.3 L-12.6,-30.5 L-8.4,-33.2" fill="none" stroke="#5f6a33" stroke-width="3" stroke-linecap="round"/><path d="M-0.0,-22.0 L-0.0,-33.0 L4.9,-33.8" fill="none" stroke="#5f6a33" stroke-width="3" stroke-linecap="round"/><path d="M8.4,-20.3 L12.6,-30.5 L17.5,-29.4" fill="none" stroke="#5f6a33" stroke-width="3" stroke-linecap="round"/><path d="M15.6,-15.6 L23.3,-23.3 L27.4,-20.5" fill="none" stroke="#5f6a33" stroke-width="3" stroke-linecap="round"/><path d="M20.3,-8.4 L30.5,-12.6 L33.2,-8.4" fill="none" stroke="#5f6a33" stroke-width="3" stroke-linecap="round"/><circle cx="0" cy="0" r="23" fill="#7c8a3e" stroke="#1f2b40" stroke-width="3"/><circle cx="-7" cy="-6" r="4" fill="#9caa55"/></g><g transform="translate(175,330) scale(0.9)"><rect x="-60" y="-34" width="120" height="22" fill="#4a6a9c" rx="5" stroke="#1f2b40" stroke-width="3"/><rect x="-60" y="12" width="120" height="22" fill="#4a6a9c" rx="5" stroke="#1f2b40" stroke-width="3"/><path d="M-54,-12 q0,-8 6,-8" fill="none" stroke="#1f2b40" stroke-width="2"/><circle cx="-51" cy="14" r="4" fill="none" stroke="#1f2b40" stroke-width="2"/><path d="M-41,-12 q0,-8 6,-8" fill="none" stroke="#1f2b40" stroke-width="2"/><circle cx="-38" cy="14" r="4" fill="none" stroke="#1f2b40" stroke-width="2"/><path d="M-28,-12 q0,-8 6,-8" fill="none" stroke="#1f2b40" stroke-width="2"/><circle cx="-25" cy="14" r="4" fill="none" stroke="#1f2b40" stroke-width="2"/><path d="M-15,-12 q0,-8 6,-8" fill="none" stroke="#1f2b40" stroke-width="2"/><circle cx="-12" cy="14" r="4" fill="none" stroke="#1f2b40" stroke-width="2"/><path d="M-2,-12 q0,-8 6,-8" fill="none" stroke="#1f2b40" stroke-width="2"/><circle cx="1" cy="14" r="4" fill="none" stroke="#1f2b40" stroke-width="2"/><path d="M11,-12 q0,-8 6,-8" fill="none" stroke="#1f2b40" stroke-width="2"/><circle cx="14" cy="14" r="4" fill="none" stroke="#1f2b40" stroke-width="2"/><path d="M24,-12 q0,-8 6,-8" fill="none" stroke="#1f2b40" stroke-width="2"/><circle cx="27" cy="14" r="4" fill="none" stroke="#1f2b40" stroke-width="2"/><path d="M37,-12 q0,-8 6,-8" fill="none" stroke="#1f2b40" stroke-width="2"/><circle cx="40" cy="14" r="4" fill="none" stroke="#1f2b40" stroke-width="2"/><path d="M50,-12 q0,-8 6,-8" fill="none" stroke="#1f2b40" stroke-width="2"/><circle cx="53" cy="14" r="4" fill="none" stroke="#1f2b40" stroke-width="2"/></g><g transform="translate(520,190) scale(1.1)"><path d="M-70,10 Q-10,-46 70,-6 Q10,20 -70,10 Z" fill="#7db5e8" stroke="#1f2b40" stroke-width="3"/><path d="M-40,6 Q0,-16 40,0" fill="none" stroke="#1f2b40" stroke-width="2"/></g><g transform="translate(520,320) scale(1.1)"><ellipse cx="0" cy="0" rx="70" ry="18" fill="#dfe7ef" stroke="#1f2b40" stroke-width="3"/><polygon points="-10,-4 30,-40 44,-38 18,-4" fill="#b9c6d3" stroke="#1f2b40" stroke-width="2"/><polygon points="-10,4 30,40 44,38 18,4" fill="#b9c6d3" stroke="#1f2b40" stroke-width="2"/><polygon points="-64,-2 -84,-20 -74,0 -84,20 -64,2" fill="#b9c6d3" stroke="#1f2b40" stroke-width="2"/><circle cx="30" cy="0" r="5" fill="#7db5e8" stroke="#1f2b40" stroke-width="2"/><circle cx="46" cy="0" r="5" fill="#7db5e8" stroke="#1f2b40" stroke-width="2"/></g></g><rect x="40" y="112" width="620" height="52" rx="14" fill="#1b1e2b" opacity="0.6"/><text x="350" y="148" font-family="Fredoka,Arial" font-size="30" font-weight="800" fill="#ffffff" text-anchor="middle">Ideas From Nature</text></svg>