<svg xmlns="http://www.w3.org/2000/svg" viewBox="0 0 700 520"><rect x="0" y="0" width="350" height="520" fill="#eaf2fa"/><rect x="350" y="0" width="350" height="520" fill="#dfe8f2"/><rect x="0" y="410" width="700" height="110" fill="#3a4a2a"/><g transform="translate(0,52)"><g transform="translate(170,200) scale(1.5)"><path d="M-26,34 L-26,-6 A26,26 0 0 1 26,-6 L26,34 L10,34 L10,-6 A10,10 0 0 0 -10,-6 L-10,34 Z" fill="#c0392b" stroke="#1f2b40" stroke-width="3"/><rect x="-26" y="34" width="16" height="12" fill="#cfd3d6" rx="2" stroke="#1f2b40" stroke-width="3"/><rect x="10" y="34" width="16" height="12" fill="#8d939a" rx="2" stroke="#1f2b40" stroke-width="3"/><text x="-18" y="44" font-family="Fredoka,Arial" font-size="9" font-weight="800" fill="#fff" text-anchor="middle">N</text><text x="18" y="44" font-family="Fredoka,Arial" font-size="9" font-weight="800" fill="#fff" text-anchor="middle">S</text></g><g transform="translate(120,300) scale(2.0)"><path d="M-6,10 L-6,-8 A6,6 0 0 1 6,-8 L6,6 A9,9 0 0 1 -12,6 L-12,-10" fill="none" stroke="#9aa0a6" stroke-width="3"/></g><g transform="translate(215,300) scale(2.0)"><path d="M-6,10 L-6,-8 A6,6 0 0 1 6,-8 L6,6 A9,9 0 0 1 -12,6 L-12,-10" fill="none" stroke="#9aa0a6" stroke-width="3"/></g><g transform="translate(510,200) rotate(0) scale(1.4)"><rect x="-40" y="-14" width="40" height="28" fill="#c0392b" stroke="#1f2b40" stroke-width="3"/><rect x="0" y="-14" width="40" height="28" fill="#5a6b8c" stroke="#1f2b40" stroke-width="3"/><text x="-20" y="5" font-family="Fredoka,Arial" font-size="12" font-weight="800" fill="#fff" text-anchor="middle">N</text><text x="20" y="5" font-family="Fredoka,Arial" font-size="12" font-weight="800" fill="#fff" text-anchor="middle">S</text></g><g transform="translate(510,300) scale(1.1)"><path d="M-40,0 Q0,-16 40,0 M-40,0 Q0,16 40,0" fill="none" stroke="#8a9ad0" stroke-width="2"/><path d="M-40,0 Q0,-34 40,0 M-40,0 Q0,34 40,0" fill="none" stroke="#8a9ad0" stroke-width="2"/><path d="M-40,0 Q0,-54 40,0 M-40,0 Q0,54 40,0" fill="none" stroke="#8a9ad0" stroke-width="2"/></g></g><rect x="34" y="112" width="632" height="52" rx="14" fill="#1b1e2b" opacity="0.6"/><text x="350" y="148" font-family="Fredoka,Arial" font-size="29" font-weight="800" fill="#ffffff" text-anchor="middle">Magnets Solve Problems</text></svg>