<svg xmlns="http://www.w3.org/2000/svg" viewBox="0 0 700 520"><rect x="0" y="0" width="350" height="520" fill="#eef3fb"/><rect x="350" y="0" width="350" height="520" fill="#eef4ec"/><rect x="0" y="410" width="700" height="110" fill="#cfd8e6"/><g transform="translate(0,52)"><g transform="translate(175,205) scale(1.6)"><rect x="0" y="-6" width="44" height="56" fill="#ffffff" rx="3" stroke="#1f2b40" stroke-width="3"/><line x1="8" y1="6" x2="32" y2="6" stroke="#9aa0a6" stroke-width="2" stroke-linecap="round"/><line x1="8" y1="16" x2="32" y2="16" stroke="#9aa0a6" stroke-width="2" stroke-linecap="round"/><rect x="-8" y="-14" width="44" height="56" fill="#ffffff" rx="3" stroke="#1f2b40" stroke-width="3"/><line x1="0" y1="-2" x2="24" y2="-2" stroke="#9aa0a6" stroke-width="2" stroke-linecap="round"/><line x1="0" y1="8" x2="24" y2="8" stroke="#9aa0a6" stroke-width="2" stroke-linecap="round"/><rect x="-16" y="-22" width="44" height="56" fill="#ffffff" rx="3" stroke="#1f2b40" stroke-width="3"/><line x1="-8" y1="-10" x2="16" y2="-10" stroke="#9aa0a6" stroke-width="2" stroke-linecap="round"/><line x1="-8" y1="0" x2="16" y2="0" stroke="#9aa0a6" stroke-width="2" stroke-linecap="round"/><rect x="-24" y="-30" width="44" height="56" fill="#ffffff" rx="3" stroke="#1f2b40" stroke-width="3"/><line x1="-16" y1="-18" x2="8" y2="-18" stroke="#9aa0a6" stroke-width="2" stroke-linecap="round"/><line x1="-16" y1="-8" x2="8" y2="-8" stroke="#9aa0a6" stroke-width="2" stroke-linecap="round"/><text x="0" y="40" font-family="Fredoka,Arial" font-size="9" font-weight="800" fill="#1f2b40" text-anchor="middle">v1 v2 v3 v4</text></g><text x="490" y="205" font-family="Fredoka,Arial" font-size="16" font-weight="800" fill="#1f2b40" text-anchor="middle">v1  v2  v3</text></g><rect x="24" y="112" width="652" height="52" rx="14" fill="#1b1e2b" opacity="0.6"/><text x="350" y="148" font-family="Fredoka,Arial" font-size="27" font-weight="800" fill="#ffffff" text-anchor="middle">Keeping Versions of Your Work</text></svg>