<svg xmlns="http://www.w3.org/2000/svg" viewBox="0 0 700 520"><rect x="0" y="0" width="350" height="520" fill="#eef4ec"/><rect x="350" y="0" width="350" height="520" fill="#eef3fb"/><rect x="0" y="410" width="700" height="110" fill="#cfd8e6"/><g transform="translate(0,40)"><g transform="translate(180,205) scale(2.0)"><line x1="-60.0" y1="-24.0" x2="-20.0" y2="-36.0" stroke="#c9d2de" stroke-width="1" stroke-linecap="round"/><line x1="-60.0" y1="-24.0" x2="-20.0" y2="-12.0" stroke="#c9d2de" stroke-width="1" stroke-linecap="round"/><line x1="-60.0" y1="-24.0" x2="-20.0" y2="12.0" stroke="#c9d2de" stroke-width="1" stroke-linecap="round"/><line x1="-60.0" y1="-24.0" x2="-20.0" y2="36.0" stroke="#c9d2de" stroke-width="1" stroke-linecap="round"/><line x1="-60.0" y1="0.0" x2="-20.0" y2="-36.0" stroke="#c9d2de" stroke-width="1" stroke-linecap="round"/><line x1="-60.0" y1="0.0" x2="-20.0" y2="-12.0" stroke="#c9d2de" stroke-width="1" stroke-linecap="round"/><line x1="-60.0" y1="0.0" x2="-20.0" y2="12.0" stroke="#c9d2de" stroke-width="1" stroke-linecap="round"/><line x1="-60.0" y1="0.0" x2="-20.0" y2="36.0" stroke="#c9d2de" stroke-width="1" stroke-linecap="round"/><line x1="-60.0" y1="24.0" x2="-20.0" y2="-36.0" stroke="#c9d2de" stroke-width="1" stroke-linecap="round"/><line x1="-60.0" y1="24.0" x2="-20.0" y2="-12.0" stroke="#c9d2de" stroke-width="1" stroke-linecap="round"/><line x1="-60.0" y1="24.0" x2="-20.0" y2="12.0" stroke="#c9d2de" stroke-width="1" stroke-linecap="round"/><line x1="-60.0" y1="24.0" x2="-20.0" y2="36.0" stroke="#c9d2de" stroke-width="1" stroke-linecap="round"/><line x1="-20.0" y1="-36.0" x2="20.0" y2="-36.0" stroke="#c9d2de" stroke-width="1" stroke-linecap="round"/><line x1="-20.0" y1="-36.0" x2="20.0" y2="-12.0" stroke="#c9d2de" stroke-width="1" stroke-linecap="round"/><line x1="-20.0" y1="-36.0" x2="20.0" y2="12.0" stroke="#c9d2de" stroke-width="1" stroke-linecap="round"/><line x1="-20.0" y1="-36.0" x2="20.0" y2="36.0" stroke="#c9d2de" stroke-width="1" stroke-linecap="round"/><line x1="-20.0" y1="-12.0" x2="20.0" y2="-36.0" stroke="#c9d2de" stroke-width="1" stroke-linecap="round"/><line x1="-20.0" y1="-12.0" x2="20.0" y2="-12.0" stroke="#c9d2de" stroke-width="1" stroke-linecap="round"/><line x1="-20.0" y1="-12.0" x2="20.0" y2="12.0" stroke="#c9d2de" stroke-width="1" stroke-linecap="round"/><line x1="-20.0" y1="-12.0" x2="20.0" y2="36.0" stroke="#c9d2de" stroke-width="1" stroke-linecap="round"/><line x1="-20.0" y1="12.0" x2="20.0" y2="-36.0" stroke="#c9d2de" stroke-width="1" stroke-linecap="round"/><line x1="-20.0" y1="12.0" x2="20.0" y2="-12.0" stroke="#c9d2de" stroke-width="1" stroke-linecap="round"/><line x1="-20.0" y1="12.0" x2="20.0" y2="12.0" stroke="#c9d2de" stroke-width="1" stroke-linecap="round"/><line x1="-20.0" y1="12.0" x2="20.0" y2="36.0" stroke="#c9d2de" stroke-width="1" stroke-linecap="round"/><line x1="-20.0" y1="36.0" x2="20.0" y2="-36.0" stroke="#c9d2de" stroke-width="1" stroke-linecap="round"/><line x1="-20.0" y1="36.0" x2="20.0" y2="-12.0" stroke="#c9d2de" stroke-width="1" stroke-linecap="round"/><line x1="-20.0" y1="36.0" x2="20.0" y2="12.0" stroke="#c9d2de" stroke-width="1" stroke-linecap="round"/><line x1="-20.0" y1="36.0" x2="20.0" y2="36.0" stroke="#c9d2de" stroke-width="1" stroke-linecap="round"/><line x1="20.0" y1="-36.0" x2="60.0" y2="-12.0" stroke="#c9d2de" stroke-width="1" stroke-linecap="round"/><line x1="20.0" y1="-36.0" x2="60.0" y2="12.0" stroke="#c9d2de" stroke-width="1" stroke-linecap="round"/><line x1="20.0" y1="-12.0" x2="60.0" y2="-12.0" stroke="#c9d2de" stroke-width="1" stroke-linecap="round"/><line x1="20.0" y1="-12.0" x2="60.0" y2="12.0" stroke="#c9d2de" stroke-width="1" stroke-linecap="round"/><line x1="20.0" y1="12.0" x2="60.0" y2="-12.0" stroke="#c9d2de" stroke-width="1" stroke-linecap="round"/><line x1="20.0" y1="12.0" x2="60.0" y2="12.0" stroke="#c9d2de" stroke-width="1" stroke-linecap="round"/><line x1="20.0" y1="36.0" x2="60.0" y2="-12.0" stroke="#c9d2de" stroke-width="1" stroke-linecap="round"/><line x1="20.0" y1="36.0" x2="60.0" y2="12.0" stroke="#c9d2de" stroke-width="1" stroke-linecap="round"/><circle cx="-60.0" cy="-24.0" r="7" fill="#8fbf6a" stroke="#1f2b40" stroke-width="2"/><circle cx="-60.0" cy="0.0" r="7" fill="#8fbf6a" stroke="#1f2b40" stroke-width="2"/><circle cx="-60.0" cy="24.0" r="7" fill="#8fbf6a" stroke="#1f2b40" stroke-width="2"/><circle cx="-20.0" cy="-36.0" r="7" fill="#5b8dd6" stroke="#1f2b40" stroke-width="2"/><circle cx="-20.0" cy="-12.0" r="7" fill="#5b8dd6" stroke="#1f2b40" stroke-width="2"/><circle cx="-20.0" cy="12.0" r="7" fill="#5b8dd6" stroke="#1f2b40" stroke-width="2"/><circle cx="-20.0" cy="36.0" r="7" fill="#5b8dd6" stroke="#1f2b40" stroke-width="2"/><circle cx="20.0" cy="-36.0" r="7" fill="#5b8dd6" stroke="#1f2b40" stroke-width="2"/><circle cx="20.0" cy="-12.0" r="7" fill="#5b8dd6" stroke="#1f2b40" stroke-width="2"/><circle cx="20.0" cy="12.0" r="7" fill="#5b8dd6" stroke="#1f2b40" stroke-width="2"/><circle cx="20.0" cy="36.0" r="7" fill="#5b8dd6" stroke="#1f2b40" stroke-width="2"/><circle cx="60.0" cy="-12.0" r="7" fill="#e0854e" stroke="#1f2b40" stroke-width="2"/><circle cx="60.0" cy="12.0" r="7" fill="#e0854e" stroke="#1f2b40" stroke-width="2"/></g><g transform="translate(500,205) scale(1.5)"><rect x="-32" y="-32" width="8" height="8" fill="#eef1f4" stroke="#cfd3d6" stroke-width="0.5"/><rect x="-24" y="-32" width="8" height="8" fill="#eef1f4" stroke="#cfd3d6" stroke-width="0.5"/><rect x="-16" y="-32" width="8" height="8" fill="#eef1f4" stroke="#cfd3d6" stroke-width="0.5"/><rect x="-8" y="-32" width="8" height="8" fill="#eef1f4" stroke="#cfd3d6" stroke-width="0.5"/><rect x="0" y="-32" width="8" height="8" fill="#eef1f4" stroke="#cfd3d6" stroke-width="0.5"/><rect x="8" y="-32" width="8" height="8" fill="#eef1f4" stroke="#cfd3d6" stroke-width="0.5"/><rect x="16" y="-32" width="8" height="8" fill="#eef1f4" stroke="#cfd3d6" stroke-width="0.5"/><rect x="24" y="-32" width="8" height="8" fill="#eef1f4" stroke="#cfd3d6" stroke-width="0.5"/><rect x="-32" y="-24" width="8" height="8" fill="#eef1f4" stroke="#cfd3d6" stroke-width="0.5"/><rect x="-24" y="-24" width="8" height="8" fill="#eef1f4" stroke="#cfd3d6" stroke-width="0.5"/><rect x="-16" y="-24" width="8" height="8" fill="#2c2933" stroke="#cfd3d6" stroke-width="0.5"/><rect x="-8" y="-24" width="8" height="8" fill="#eef1f4" stroke="#cfd3d6" stroke-width="0.5"/><rect x="0" y="-24" width="8" height="8" fill="#eef1f4" stroke="#cfd3d6" stroke-width="0.5"/><rect x="8" y="-24" width="8" height="8" fill="#2c2933" stroke="#cfd3d6" stroke-width="0.5"/><rect x="16" y="-24" width="8" height="8" fill="#eef1f4" stroke="#cfd3d6" stroke-width="0.5"/><rect x="24" y="-24" width="8" height="8" fill="#eef1f4" stroke="#cfd3d6" stroke-width="0.5"/><rect x="-32" y="-16" width="8" height="8" fill="#eef1f4" stroke="#cfd3d6" stroke-width="0.5"/><rect x="-24" y="-16" width="8" height="8" fill="#eef1f4" stroke="#cfd3d6" stroke-width="0.5"/><rect x="-16" y="-16" width="8" height="8" fill="#2c2933" stroke="#cfd3d6" stroke-width="0.5"/><rect x="-8" y="-16" width="8" height="8" fill="#eef1f4" stroke="#cfd3d6" stroke-width="0.5"/><rect x="0" y="-16" width="8" height="8" fill="#eef1f4" stroke="#cfd3d6" stroke-width="0.5"/><rect x="8" y="-16" width="8" height="8" fill="#2c2933" stroke="#cfd3d6" stroke-width="0.5"/><rect x="16" y="-16" width="8" height="8" fill="#eef1f4" stroke="#cfd3d6" stroke-width="0.5"/><rect x="24" y="-16" width="8" height="8" fill="#eef1f4" stroke="#cfd3d6" stroke-width="0.5"/><rect x="-32" y="-8" width="8" height="8" fill="#eef1f4" stroke="#cfd3d6" stroke-width="0.5"/><rect x="-24" y="-8" width="8" height="8" fill="#eef1f4" stroke="#cfd3d6" stroke-width="0.5"/><rect x="-16" y="-8" width="8" height="8" fill="#eef1f4" stroke="#cfd3d6" stroke-width="0.5"/><rect x="-8" y="-8" width="8" height="8" fill="#eef1f4" stroke="#cfd3d6" stroke-width="0.5"/><rect x="0" y="-8" width="8" height="8" fill="#eef1f4" stroke="#cfd3d6" stroke-width="0.5"/><rect x="8" y="-8" width="8" height="8" fill="#eef1f4" stroke="#cfd3d6" stroke-width="0.5"/><rect x="16" y="-8" width="8" height="8" fill="#eef1f4" stroke="#cfd3d6" stroke-width="0.5"/><rect x="24" y="-8" width="8" height="8" fill="#eef1f4" stroke="#cfd3d6" stroke-width="0.5"/><rect x="-32" y="0" width="8" height="8" fill="#eef1f4" stroke="#cfd3d6" stroke-width="0.5"/><rect x="-24" y="0" width="8" height="8" fill="#2c2933" stroke="#cfd3d6" stroke-width="0.5"/><rect x="-16" y="0" width="8" height="8" fill="#eef1f4" stroke="#cfd3d6" stroke-width="0.5"/><rect x="-8" y="0" width="8" height="8" fill="#eef1f4" stroke="#cfd3d6" stroke-width="0.5"/><rect x="0" y="0" width="8" height="8" fill="#eef1f4" stroke="#cfd3d6" stroke-width="0.5"/><rect x="8" y="0" width="8" height="8" fill="#eef1f4" stroke="#cfd3d6" stroke-width="0.5"/><rect x="16" y="0" width="8" height="8" fill="#2c2933" stroke="#cfd3d6" stroke-width="0.5"/><rect x="24" y="0" width="8" height="8" fill="#eef1f4" stroke="#cfd3d6" stroke-width="0.5"/><rect x="-32" y="8" width="8" height="8" fill="#eef1f4" stroke="#cfd3d6" stroke-width="0.5"/><rect x="-24" y="8" width="8" height="8" fill="#eef1f4" stroke="#cfd3d6" stroke-width="0.5"/><rect x="-16" y="8" width="8" height="8" fill="#2c2933" stroke="#cfd3d6" stroke-width="0.5"/><rect x="-8" y="8" width="8" height="8" fill="#2c2933" stroke="#cfd3d6" stroke-width="0.5"/><rect x="0" y="8" width="8" height="8" fill="#2c2933" stroke="#cfd3d6" stroke-width="0.5"/><rect x="8" y="8" width="8" height="8" fill="#2c2933" stroke="#cfd3d6" stroke-width="0.5"/><rect x="16" y="8" width="8" height="8" fill="#eef1f4" stroke="#cfd3d6" stroke-width="0.5"/><rect x="24" y="8" width="8" height="8" fill="#eef1f4" stroke="#cfd3d6" stroke-width="0.5"/><rect x="-32" y="16" width="8" height="8" fill="#eef1f4" stroke="#cfd3d6" stroke-width="0.5"/><rect x="-24" y="16" width="8" height="8" fill="#eef1f4" stroke="#cfd3d6" stroke-width="0.5"/><rect x="-16" y="16" width="8" height="8" fill="#eef1f4" stroke="#cfd3d6" stroke-width="0.5"/><rect x="-8" y="16" width="8" height="8" fill="#eef1f4" stroke="#cfd3d6" stroke-width="0.5"/><rect x="0" y="16" width="8" height="8" fill="#eef1f4" stroke="#cfd3d6" stroke-width="0.5"/><rect x="8" y="16" width="8" height="8" fill="#eef1f4" stroke="#cfd3d6" stroke-width="0.5"/><rect x="16" y="16" width="8" height="8" fill="#eef1f4" stroke="#cfd3d6" stroke-width="0.5"/><rect x="24" y="16" width="8" height="8" fill="#eef1f4" stroke="#cfd3d6" stroke-width="0.5"/><rect x="-32" y="24" width="8" height="8" fill="#eef1f4" stroke="#cfd3d6" stroke-width="0.5"/><rect x="-24" y="24" width="8" height="8" fill="#eef1f4" stroke="#cfd3d6" stroke-width="0.5"/><rect x="-16" y="24" width="8" height="8" fill="#eef1f4" stroke="#cfd3d6" stroke-width="0.5"/><rect x="-8" y="24" width="8" height="8" fill="#eef1f4" stroke="#cfd3d6" stroke-width="0.5"/><rect x="0" y="24" width="8" height="8" fill="#eef1f4" stroke="#cfd3d6" stroke-width="0.5"/><rect x="8" y="24" width="8" height="8" fill="#eef1f4" stroke="#cfd3d6" stroke-width="0.5"/><rect x="16" y="24" width="8" height="8" fill="#eef1f4" stroke="#cfd3d6" stroke-width="0.5"/><rect x="24" y="24" width="8" height="8" fill="#eef1f4" stroke="#cfd3d6" stroke-width="0.5"/></g></g><rect x="20" y="110" width="660" height="54" rx="14" fill="#1b1e2b" opacity="0.62"/><text x="350" y="147" font-family="Fredoka,Arial" font-size="27" font-weight="800" fill="#ffffff" text-anchor="middle">Neural Networks: Layers That Learn</text></svg>