<svg xmlns="http://www.w3.org/2000/svg" viewBox="0 0 700 520"><rect width="700" height="520" fill="#eef7f2"/><rect y="410" width="700" height="110" fill="#cfe6d8"/><circle cx="230" cy="240" r="34" fill="#f4c79a" stroke="#243244" stroke-width="4"/><path d="M196,224 a34,34 0 0 1 68,0 q-34,-22 -68,0Z" fill="#5a3a22"/><circle cx="218" cy="238" r="4" fill="#243244"/><circle cx="242" cy="238" r="4" fill="#243244"/><path d="M220,254 q10,8 20,0" fill="none" stroke="#243244" stroke-width="3"/><rect x="178" y="290" width="104" height="76" rx="10" fill="#3a3f4a" stroke="#243244" stroke-width="4"/><rect x="186" y="298" width="88" height="60" rx="6" fill="#dff0fb"/><rect x="220" y="366" width="20" height="14" fill="#5a6472" stroke="#243244" stroke-width="3"/><rect x="204" y="380" width="52" height="8" rx="4" fill="#5a6472" stroke="#243244" stroke-width="3"/><path d="M470,172.0 L510.8,188.8 L510.8,229.6 Q510.8,268.0 470,282.4 Q429.2,268.0 429.2,229.6 L429.2,188.8 Z" fill="#7fbf5a" stroke="#243244" stroke-width="4"/><path d="M453.2,222.4 l10*s,12*s l20*s,-22*s" fill="none" stroke="#fff" stroke-width="6.0" stroke-linecap="round" stroke-linejoin="round" transform="translate(0,0)"/><path d="M560,339.2 C531.2,312.8 545.6,291.2 560,309.2 C574.4,291.2 588.8,312.8 560,339.2 Z" fill="#e2544a" stroke="#243244" stroke-width="3"/><text x="350" y="90" font-family="Fredoka,Arial" font-size="32" font-weight="800" fill="#243244" text-anchor="middle">Safe and Kind Online</text></svg>