<svg xmlns="http://www.w3.org/2000/svg" viewBox="0 0 700 520"><rect x="0" y="0" width="350" height="520" fill="#eaf1fb"/><rect x="350" y="0" width="350" height="520" fill="#eef4ec"/><rect x="0" y="410" width="700" height="110" fill="#cfd8e6"/><g transform="translate(0,52)"><g transform="translate(175,210) scale(1.6)"><line x1="-36" y1="-12" x2="-36" y2="12" stroke="#1f2b40" stroke-width="3" stroke-linecap="round"/><line x1="-30" y1="-12" x2="-30" y2="12" stroke="#1f2b40" stroke-width="3" stroke-linecap="round"/><line x1="-24" y1="-12" x2="-24" y2="12" stroke="#1f2b40" stroke-width="3" stroke-linecap="round"/><line x1="-18" y1="-12" x2="-18" y2="12" stroke="#1f2b40" stroke-width="3" stroke-linecap="round"/><line x1="-32" y1="-12" x2="-8" y2="12" stroke="#1f2b40" stroke-width="3" stroke-linecap="round"/><line x1="2" y1="-12" x2="2" y2="12" stroke="#1f2b40" stroke-width="3" stroke-linecap="round"/></g><g transform="translate(500,210) scale(1.3)"><line x1="-50" y1="24" x2="60" y2="24" stroke="#1f2b40" stroke-width="2" stroke-linecap="round"/><line x1="-50" y1="24" x2="-50" y2="-40" stroke="#1f2b40" stroke-width="2" stroke-linecap="round"/><rect x="-42" y="-9" width="18" height="33" fill="#e0554e" rx="2" stroke="#1f2b40" stroke-width="3"/><rect x="-16" y="-31" width="18" height="55" fill="#5b8dd6" rx="2" stroke="#1f2b40" stroke-width="3"/><rect x="10" y="2" width="18" height="22" fill="#5aa85f" rx="2" stroke="#1f2b40" stroke-width="3"/><rect x="36" y="-20" width="18" height="44" fill="#f2c230" rx="2" stroke="#1f2b40" stroke-width="3"/></g></g><rect x="30" y="112" width="640" height="52" rx="14" fill="#1b1e2b" opacity="0.6"/><text x="350" y="148" font-family="Fredoka,Arial" font-size="30" font-weight="800" fill="#ffffff" text-anchor="middle">What Is Data?</text></svg>